<?xml version="1.0" encoding="UTF-8" standalone="no"?>
<!-- Created with Inkscape (http://www.inkscape.org/) -->

<svg
   xmlns:dc="http://purl.org/dc/elements/1.1/"
   xmlns:cc="http://creativecommons.org/ns#"
   xmlns:rdf="http://www.w3.org/1999/02/22-rdf-syntax-ns#"
   xmlns:svg="http://www.w3.org/2000/svg"
   xmlns="http://www.w3.org/2000/svg"
   xmlns:xlink="http://www.w3.org/1999/xlink"
   xmlns:sodipodi="http://sodipodi.sourceforge.net/DTD/sodipodi-0.dtd"
   xmlns:inkscape="http://www.inkscape.org/namespaces/inkscape"
   width="64"
   height="128"
   id="svg2"
   version="1.1"
   inkscape:version="0.48.2 r9819"
   sodipodi:docname="map-pin-orange.svg">
  <defs
     id="defs4">
    <linearGradient
       inkscape:collect="always"
       id="linearGradient3780">
      <stop
         style="stop-color:#fbc327;stop-opacity:1"
         offset="0"
         id="stop3782" />
      <stop
         style="stop-color:#fe9201;stop-opacity:1"
         offset="1"
         id="stop3784" />
    </linearGradient>
    <filter
       inkscape:collect="always"
       id="filter3776"
       x="-0.28324065"
       width="1.5664814"
       y="-0.63269335"
       height="2.2653868"
       color-interpolation-filters="sRGB">
      <feGaussianBlur
         inkscape:collect="always"
         stdDeviation="2.5631248"
         id="feGaussianBlur3778" />
    </filter>
    <linearGradient
       inkscape:collect="always"
       xlink:href="#linearGradient3780"
       id="linearGradient3786"
       x1="92.690361"
       y1="109.14102"
       x2="92.789238"
       y2="135.64702"
       gradientUnits="userSpaceOnUse" />
    <linearGradient
       inkscape:collect="always"
       xlink:href="#linearGradient3780"
       id="linearGradient3795"
       gradientUnits="userSpaceOnUse"
       x1="92.690361"
       y1="109.14102"
       x2="92.789238"
       y2="135.64702" />
  </defs>
  <sodipodi:namedview
     id="base"
     pagecolor="#ffffff"
     bordercolor="#666666"
     borderopacity="1.0"
     inkscape:pageopacity="0.0"
     inkscape:pageshadow="2"
     inkscape:zoom="1.979899"
     inkscape:cx="67.247488"
     inkscape:cy="24.8833"
     inkscape:document-units="px"
     inkscape:current-layer="layer1"
     showgrid="false"
     inkscape:window-width="1366"
     inkscape:window-height="706"
     inkscape:window-x="-8"
     inkscape:window-y="-8"
     inkscape:window-maximized="1" />
  <metadata
     id="metadata7">
    <rdf:RDF>
      <cc:Work
         rdf:about="">
        <dc:format>image/svg+xml</dc:format>
        <dc:type
           rdf:resource="http://purl.org/dc/dcmitype/StillImage" />
        <dc:title></dc:title>
      </cc:Work>
    </rdf:RDF>
  </metadata>
  <g
     inkscape:label="Layer 1"
     inkscape:groupmode="layer"
     id="layer1"
     transform="translate(0,-924.3622)">
    <g
       id="g3790"
       transform="matrix(1.0805786,0,0,1.0805786,-67.675264,840.68351)">
      <path
         transform="matrix(0.85211636,0,0,0.48577209,18.266576,68.171222)"
         d="m 98.237336,138.61607 c 0,2.68486 -4.861802,4.86136 -10.859139,4.86136 -5.997337,0 -10.85914,-2.1765 -10.85914,-4.86136 0,-2.68485 4.861803,-4.86136 10.85914,-4.86136 5.997337,0 10.859139,2.17651 10.859139,4.86136 z"
         sodipodi:ry="4.8613591"
         sodipodi:rx="10.859139"
         sodipodi:cy="138.61607"
         sodipodi:cx="87.378197"
         id="path3766"
         style="opacity:0.31858407;fill:#000000;fill-opacity:1;fill-rule:nonzero;stroke:#000000;stroke-width:1.29999995;stroke-linecap:round;stroke-miterlimit:4;stroke-opacity:1;stroke-dasharray:none;filter:url(#filter3776)"
         sodipodi:type="arc" />
      <path
         sodipodi:nodetypes="sszscszss"
         inkscape:connector-curvature="0"
         id="path2989"
         d="m 92.6875,79.59375 c -9.902581,0 -17.9375,8.003669 -17.9375,17.90625 0,5.72324 4.160854,11.56145 6.875,14.09375 2.714146,2.5323 3.049626,3.63218 3.875,5.78125 5.132581,13.36395 7.1875,18.27232 7.1875,18.27232 0,0 2.418106,-4.74899 7.5625,-18.42857 0.82852,-2.20314 1.32287,-3.40152 3.90625,-5.9375 2.58338,-2.53598 6.46875,-8.2427 6.46875,-13.78125 0,-9.902581 -8.03492,-17.90625 -17.9375,-17.90625 z"
         style="fill:url(#linearGradient3795);fill-opacity:1;fill-rule:nonzero;stroke:#f0790c;stroke-width:2;stroke-linecap:round;stroke-linejoin:round;stroke-miterlimit:4;stroke-opacity:1;stroke-dasharray:none" />
      <path
         transform="translate(-1.2626907,-0.50507627)"
         d="m 102.27794,97.768028 c 0,4.602612 -3.731149,8.333762 -8.333757,8.333762 -4.602607,0 -8.333758,-3.73115 -8.333758,-8.333762 0,-4.602607 3.731151,-8.333758 8.333758,-8.333758 4.602608,0 8.333757,3.731151 8.333757,8.333758 z"
         sodipodi:ry="8.3337584"
         sodipodi:rx="8.3337584"
         sodipodi:cy="97.768028"
         sodipodi:cx="93.944183"
         id="path3788"
         style="fill:#ffe9ab;fill-opacity:1;fill-rule:nonzero;stroke:#f0790c;stroke-width:2;stroke-linecap:round;stroke-linejoin:round;stroke-miterlimit:4;stroke-opacity:1;stroke-dasharray:none"
         sodipodi:type="arc" />
    </g>
  </g>
</svg>
